<?xml version="1.0" standalone="no"?>
<!DOCTYPE svg PUBLIC "-//W3C//DTD SVG 20010904//EN"
 "http://www.w3.org/TR/2001/REC-SVG-20010904/DTD/svg10.dtd">
<svg version="1.0" xmlns="http://www.w3.org/2000/svg"
 width="300.000000pt" height="54.000000pt" viewBox="0 0 300.000000 54.000000"
 preserveAspectRatio="xMidYMid meet">
<metadata>
Created by potrace 1.10, written by Peter Selinger 2001-2011
</metadata>
<g transform="translate(0.000000,54.000000) scale(0.100000,-0.100000)"
fill="#ffd700" stroke="none">
<path d="M225 460 c-41 -84 -38 -82 -130 -95 -117 -16 -120 -25 -33 -112 l61
-62 -12 -85 c-14 -91 -11 -107 18 -101 27 5 138 63 147 76 4 7 9 7 13 2 9 -14
122 -72 148 -77 13 -3 25 0 29 5 6 11 -14 146 -26 168 -5 9 15 33 61 75 37 33
67 69 68 79 1 9 0 17 -2 17 -2 0 -30 5 -63 10 -32 6 -74 13 -92 16 -29 4 -37
13 -72 84 -52 104 -64 104 -115 0z m100 -34 c35 -65 57 -80 128 -90 27 -3 53
-9 59 -12 5 -4 -14 -30 -42 -59 l-53 -54 7 -85 c4 -47 5 -86 1 -86 -3 0 -35
15 -72 34 -65 33 -68 34 -103 20 -19 -8 -50 -24 -68 -35 -43 -25 -52 -24 -46
3 2 13 7 50 11 84 l6 61 -57 53 c-31 30 -52 57 -48 62 4 4 36 11 71 17 74 12
98 30 131 101 13 28 28 49 34 47 5 -2 24 -29 41 -61z"/>
<path d="M825 461 c-38 -80 -51 -91 -102 -91 -53 0 -123 -22 -123 -38 0 -9 28
-44 62 -79 l61 -62 -12 -85 c-14 -91 -11 -107 18 -101 27 5 138 63 147 76 4 6
9 7 13 2 10 -16 123 -73 132 -67 5 3 9 1 9 -5 0 -10 25 -9 36 1 7 7 -14 146
-26 167 -4 8 10 29 43 60 82 75 87 80 87 96 0 8 -13 16 -32 19 -18 3 -60 10
-92 16 -33 5 -61 10 -63 10 -1 0 -21 36 -43 80 -52 104 -64 104 -115 1z m100
-35 c38 -68 57 -81 133 -90 24 -3 48 -8 54 -12 6 -4 -9 -26 -35 -53 -61 -63
-65 -73 -55 -139 15 -97 14 -98 -69 -58 l-72 35 -68 -34 c-37 -19 -71 -31 -74
-27 -4 4 -3 33 3 65 13 76 7 96 -47 148 -45 43 -57 69 -32 69 102 3 148 28
183 100 16 33 32 60 36 60 4 0 23 -29 43 -64z"/>
<path d="M1425 461 c-38 -80 -51 -91 -102 -91 -53 0 -123 -22 -123 -38 0 -9
28 -44 62 -79 l61 -62 -12 -86 c-17 -115 -12 -119 80 -75 38 19 75 40 81 48 6
7 14 9 17 4 9 -13 122 -71 148 -76 13 -3 25 0 29 5 6 11 -14 146 -26 168 -5 9
15 33 61 75 37 33 67 69 68 79 1 9 0 17 -2 17 -2 0 -30 5 -63 10 -32 6 -74 13
-92 16 -29 4 -37 13 -72 84 -52 104 -64 104 -115 1z m100 -35 c33 -63 62 -85
112 -86 17 0 44 -5 59 -10 l27 -11 -45 -47 c-62 -64 -66 -74 -56 -140 15 -97
14 -98 -66 -58 -76 38 -80 38 -163 -10 -25 -15 -48 -23 -53 -18 -4 5 -4 35 2
67 13 76 6 98 -47 152 -49 49 -55 65 -25 65 11 0 21 0 23 1 98 19 123 37 157
110 13 27 28 48 34 46 6 -2 24 -29 41 -61z"/>
<path d="M2025 461 c-38 -80 -51 -91 -102 -91 -53 0 -123 -22 -123 -38 0 -9
28 -44 62 -79 l61 -62 -12 -86 c-17 -110 -11 -118 61 -84 29 13 67 34 85 46
18 12 33 19 33 15 0 -5 36 -26 80 -47 103 -50 108 -46 86 72 l-16 88 65 64
c36 35 65 69 65 77 0 8 -1 14 -3 14 -2 0 -30 5 -63 10 -32 6 -74 13 -92 16
-29 4 -37 13 -72 84 -52 104 -64 104 -115 1z m88 -13 c39 -83 57 -98 126 -108
33 -5 65 -11 71 -15 7 -4 -9 -28 -41 -62 l-51 -54 7 -85 c4 -46 4 -84 0 -84
-4 0 -38 16 -76 35 l-68 35 -67 -36 c-40 -21 -70 -32 -76 -26 -5 5 -5 27 1 53
20 84 15 101 -39 156 -46 47 -61 73 -42 73 40 0 129 23 144 37 11 10 33 44 49
76 16 31 31 57 33 57 2 0 15 -24 29 -52z"/>
<path d="M2625 461 c-38 -80 -51 -91 -102 -91 -53 0 -123 -22 -123 -38 0 -9
28 -44 62 -79 l61 -62 -12 -85 c-14 -91 -11 -107 18 -101 27 5 138 63 147 76
4 7 9 7 13 2 9 -14 122 -72 149 -78 33 -6 36 12 18 105 l-15 81 64 61 c92 86
89 98 -30 113 -93 12 -93 12 -136 96 -51 103 -63 103 -114 0z m97 -33 c25 -45
44 -68 69 -79 l34 -17 0 -146 c0 -80 -2 -146 -5 -146 -3 1 -34 16 -69 35 -70
37 -75 37 -158 -11 -25 -15 -48 -23 -53 -18 -4 5 -4 36 1 69 13 78 8 93 -48
148 -55 55 -52 63 32 77 68 11 91 30 125 100 14 27 28 50 32 50 3 0 22 -28 40
-62z m235 -94 c3 -8 -17 -35 -46 -63 l-51 -50 0 67 0 67 46 -3 c26 -3 48 -10
51 -18z"/>
</g>
</svg>
